# xmcd CD database file
#
# Track frame offsets:
#	150
#	17343
#	34011
#	47563
#	62932
#	78184
#	93437
#	110129
#	124405
#	136417
#
# Disc length: 2015 seconds
#
# Revision: 0
# Processed by: cddbd v1.5.2PL0 Copyright (c) Steve Scherf et al.
# Submitted via: CDex 1.70beta2
#
DISCID=8107dd0a
DTITLE=Doc Walker - The 8th
DYEAR=2014
DGENRE=Country
TTITLE0=Put It Into Drive
TTITLE1=Western Wind
TTITLE2=That's How I Like It
TTITLE3=It Won't Hurt (If My Heart Don't Know)
TTITLE4=Park The Car
TTITLE5=Shake It Like It's Saturday Night
TTITLE6=That's What I Call Love
TTITLE7=Some Girls Are Meant To Run
TTITLE8=Leave It All On The Dance Floor
TTITLE9=Celebration
EXTD=YEAR: 2014
EXTT0=
EXTT1=
EXTT2=
EXTT3=
EXTT4=
EXTT5=
EXTT6=
EXTT7=
EXTT8=
EXTT9=
PLAYORDER=
